<?xml version="1.0" encoding="iso-8859-1"?>
<!-- Generator: Adobe Illustrator 19.0.0, SVG Export Plug-In . SVG Version: 6.00 Build 0)  -->
<svg version="1.1" id="Capa_1" xmlns="http://www.w3.org/2000/svg" xmlns:xlink="http://www.w3.org/1999/xlink" x="0px" y="0px"
	 viewBox="0 0 511.814 511.814" style="enable-background:new 0 0 511.814 511.814;" xml:space="preserve">
<g>
	<g>
		<path d="M401.475,332.072c-6.88-52.64-33.664-104.64-75.424-146.4c-41.76-41.76-93.76-68.512-146.4-75.392
			c-54.176-7.04-102.656,7.648-136.448,41.472c-0.096,0.128-0.192,0.256-0.288,0.352s-0.16,0.16-0.224,0.256
			c-33.408,33.792-48,81.984-40.96,135.872C8.579,340.872,35.395,392.84,77.155,434.6s93.76,68.576,146.368,75.424
			c8.864,1.152,17.6,1.728,26.112,1.728c43.552,0,82.048-14.944,110.336-43.2c0.096-0.096,0.192-0.224,0.32-0.352
			c0.064-0.096,0.128-0.16,0.224-0.256C393.923,434.152,408.515,385.96,401.475,332.072z M227.683,478.28
			c-45.664-5.952-91.104-29.504-127.904-66.304c-36.8-36.8-60.352-82.208-66.304-127.904c-4.512-34.432,1.824-65.504,17.344-90.24
			l8,17.76c25.984,57.632,78.016,100.32,139.296,114.176c51.424,11.648,95.2,47.552,117.056,96.096l13.76,30.528
			C302.755,473.896,267.491,483.432,227.683,478.28z M352.323,426.312l-7.936-17.6c-25.984-57.632-78.016-100.32-139.296-114.176
			c-51.456-11.648-95.2-47.552-117.056-96.096l-13.856-30.72c21.888-17.952,49.504-27.2,79.744-27.2
			c49.536,0,105.12,23.424,149.504,67.808C370.403,275.304,389.187,367.4,352.323,426.312z"/>
	</g>
</g>
<g>
	<g>
		<path d="M468.931,42.792c-0.064-0.064-0.192-0.128-0.256-0.192c-0.224-0.224-0.48-0.352-0.704-0.544
			c-66.112-64.608-185.248-53.568-271.968,25.536c-6.56,5.952-7.04,16.064-1.088,22.592c5.984,6.592,16.128,7.008,22.624,1.024
			c66.368-60.48,153.088-75.776,209.28-40.768l-17.632,7.936c-38.176,17.184-70.56,46.496-91.168,82.496
			c-4.384,7.68-1.728,17.44,5.952,21.856c2.464,1.44,5.184,2.112,7.904,2.112c5.536,0,10.944-2.88,13.92-8.032
			c17.28-30.176,44.448-54.752,76.544-69.216l30.464-13.728c45.088,55.328,32.48,149.376-32.256,220.352
			c-5.984,6.528-5.504,16.64,1.024,22.624c3.072,2.784,6.912,4.16,10.784,4.16c4.352,0,8.672-1.76,11.84-5.216
			C523.683,228.648,534.595,108.744,468.931,42.792z"/>
	</g>
</g>
<g>
</g>
<g>
</g>
<g>
</g>
<g>
</g>
<g>
</g>
<g>
</g>
<g>
</g>
<g>
</g>
<g>
</g>
<g>
</g>
<g>
</g>
<g>
</g>
<g>
</g>
<g>
</g>
<g>
</g>
</svg>
